<?xml version="1.0" encoding="UTF-8"?>
<svg data-bbox="299.664 556.542 1500.336 986.958" height="2100" width="2100" viewBox="0 0 2100 2100" xmlns="http://www.w3.org/2000/svg" data-type="color">
    <g>
        <path d="M312.8 1535.9c-1.7-4.3-4-18.6-5.2-31.7-2.4-37.8-7.6-69.7-7.6-99.9-2.2-36.9 6.6-120.4 20.9-157.1 3.6-2.8 11-1.9 32 3.9 15.1 4.1 28.6 8.7 30.1 10.2 1.6 1.6-1.5 17.1-7 35.7-18.5 62.3-29.8 147.2-28 210.1l1.1 34.8-16.7 1c-15.2.9-16.9.3-19.6-7m1172.4-9c12.8-50.4 16.6-143.5 8.2-202.7-2.6-18.1-3.2-32.3-1.6-33.9 1.6-1.5 60.5-19.2 130.9-39.3 102.9-29.3 128.9-35.8 132.1-32.6 8.7 8.7 32.9 106.8 37.6 151.9 5.1 37.8 7.6 68.5 7.6 97.3v75.9h-319zm-549.3 4.5c-50.4-13.1-86.8-55.7-90.8-106.3-2.9-36.4-7.5-25.5 113.1-272.4 17-34.8 50.5-103.2 74.4-151.9 23.8-48.7 53.1-108.5 64.8-132.9 29.6-61 124.2-254.3 138.8-283.2 13.7-27.3 22.7-33.3 36.6-24.2 5.9 3.8 8.2 8.1 8.2 15.3 0 5.4-9.9 52.7-22 105.1-12 52.4-57 247.6-99.8 433.8-55.5 241-80.2 343.2-86 354.4-17.5 42.5-69.4 80.5-137.3 62.3m66.5-71.3c36.3-24 33.2-81.6-5.6-100.5-29.9-14.6-66.8-2.2-80 26.9-24.2 53.3 36.8 105.9 85.6 73.6m466.7-237c-22.8-69.2-68.2-145.6-118.4-199.4-12.2-13.1-22.2-25.5-22.2-27.5 0-2.1 17.4-24.8 38.7-50.5 21.4-25.6 52.3-63.2 68.9-83.4 16.5-20.2 31.7-37.4 33.8-38.3 9.7-4.2 89.6 68.7 135.4 123.6 38.4 46 66.2 86.7 94.9 139.1 21.9 40 27.4 56 20.2 58.9-2.4.9-55.9 22.5-118.9 47.9s-117.4 46.2-120.8 46.2c-4.6 0-7.5-4.1-11.6-16.6m-1099.3-30.6c-16.5-6.6-30.5-13.7-31.2-15.8-4.4-13 46.6-122.6 81.7-175.9 41.9-63.4 107.5-137.6 118-133.6 2.6 1 20.8 20.8 40.3 43.9l35.6 42.1-18.6 15.9c-32.9 28-80.4 75.3-100.3 99.7-24.5 30.3-54.7 76.6-71.8 110q-13.4 26.1-18.6 25.8c-2.9-.1-18.7-5.6-35.1-12.1m895.3-245.6c-11.3-7.9-21-15.8-21.6-17.5-1.3-3.9 43.9-202.9 46.8-206.3 4.1-4.7 113.7 48.6 116.4 56.6 1.2 3.6-113.4 179-117.9 180.5-1.8.6-12.5-5.4-23.7-13.3m-614.8-38.7c-30.4-41.8-59.4-87.3-58-91 2.3-6 58.3-42.1 96.9-62.5 40.1-21.3 63.1-31 110.1-47 54.4-18.4 146-36.2 150.3-29.2 2.5 4 12.7 158.6 10.8 163.6-1.2 3.1-12.9 4.7-43.8 6.1-73 3.1-149.4 23.2-218.2 57.6-19.4 9.6-35.6 17.5-36.1 17.5-.6 0-5.9-6.8-12-15.1m384.5-55.2c-10.3-1.9-17.6-5-18.8-8.1-3.4-8.9 5.6-169.7 9.7-172.5 5.2-3.6 114.2 4.3 118.5 8.5 2.6 2.6-84.7 175.9-88.5 175.5-2.3-.2-11.7-1.7-20.9-3.4" fill="#8b0000" data-color="1"/>
    </g>
</svg>
